<?xml version="1.0" encoding="UTF-8" standalone="no"?>
<svg
   xmlns:dc="http://purl.org/dc/elements/1.1/"
   xmlns:cc="http://creativecommons.org/ns#"
   xmlns:rdf="http://www.w3.org/1999/02/22-rdf-syntax-ns#"
   xmlns:svg="http://www.w3.org/2000/svg"
   xmlns="http://www.w3.org/2000/svg"
   version="1.1"
   id="svg2"
   viewBox="0 0 195.18286 174.28498"
   height="49.187096mm"
   width="55.084942mm">
  <defs
     id="defs4" />
  <metadata
     id="metadata7">
    <rdf:RDF>
      <cc:Work
         rdf:about="">
        <dc:format>image/svg+xml</dc:format>
        <dc:type
           rdf:resource="http://purl.org/dc/dcmitype/StillImage" />
        <dc:title></dc:title>
      </cc:Work>
    </rdf:RDF>
  </metadata>
  <g
     transform="translate(-276.51454,-431.06461)"
     id="layer1">
    <g
       id="g4194">
      <path
         style="opacity:1;fill:none;fill-opacity:1;stroke:#404040;stroke-width:5;stroke-linecap:round;stroke-linejoin:miter;stroke-miterlimit:4;stroke-dasharray:none;stroke-dashoffset:0;stroke-opacity:1"
         d="m 286.48388,546.18755 c -1.6447,-16.57278 16.7105,-25.21354 30.8247,-24.75475 2.6538,-0.0228 5.3118,0.17266 7.9253,0.64711"
         id="path5343" />
      <rect
         ry="15.113668"
         y="460.40952"
         x="326.76141"
         height="141.0609"
         width="95"
         id="rect5345"
         style="opacity:1;fill:#ffffff;fill-opacity:1;stroke:#404040;stroke-width:4;stroke-linecap:round;stroke-linejoin:miter;stroke-miterlimit:4;stroke-dasharray:none;stroke-dashoffset:0;stroke-opacity:1" />
      <path
         id="path5347"
         d="m 334.61878,477.55164 0,92.13281 80,0 0,-92.13281 -80,0 z m 12.752,29.48828 c 3.8861,0 6.9902,3.29757 6.9902,7.21289 l 0,15.05469 c 0,3.91532 -3.1041,7.21289 -6.9902,7.21289 -3.8861,0 -6.9922,-3.29757 -6.9922,-7.21289 l 0,-15.05469 c 0,-3.91532 3.1061,-7.21289 6.9922,-7.21289 z m 38.9277,0 c 3.8861,0 6.9922,3.29757 6.9922,7.21289 l 0,15.05469 c 0,3.91532 -3.1061,7.21289 -6.9922,7.21289 -3.8861,0 -6.9922,-3.29757 -6.9922,-7.21289 l 0,-15.05469 c 0,-3.91532 3.1061,-7.21289 6.9922,-7.21289 z m -23.25,0.23438 c 3.8861,0 6.9922,3.29563 6.9922,7.21093 l 0,15.05469 c 0,3.91532 -3.1061,7.21289 -6.9922,7.21289 -3.8861,0 -6.9902,-3.29757 -6.9902,-7.21289 l 0,-15.05469 c 0,-3.9153 3.1041,-7.21093 6.9902,-7.21093 z m 38.9297,0 c 3.8861,0 6.9902,3.29563 6.9902,7.21093 l 0,15.05469 c 0,3.91532 -3.1041,7.21289 -6.9902,7.21289 -3.8861,0 -6.9922,-3.29757 -6.9922,-7.21289 l 0,-15.05469 c 0,-3.9153 3.1061,-7.21093 6.9922,-7.21093 z m -54.6074,3.76562 c -1.6447,0 -2.9922,1.35383 -2.9922,3.21289 l 0,15.05469 c 0,1.85907 1.3475,3.21289 2.9922,3.21289 1.6447,0 2.9902,-1.35382 2.9902,-3.21289 l 0,-15.05469 c 0,-1.85906 -1.3455,-3.21289 -2.9902,-3.21289 z m 38.9277,0 c -1.6447,0 -2.9922,1.35383 -2.9922,3.21289 l 0,15.05469 c 0,1.85907 1.3475,3.21289 2.9922,3.21289 1.6447,0 2.9922,-1.35382 2.9922,-3.21289 l 0,-15.05469 c 0,-1.85906 -1.3475,-3.21289 -2.9922,-3.21289 z m -11.8086,0.14258 a 2.0002,2.0002 0 0 1 2.0293,2.02734 l 0,5.33204 a 2.0002,2.0002 0 1 1 -4,0 l 0,-5.33204 a 2.0002,2.0002 0 0 1 1.9707,-2.02734 z m -11.4414,0.0918 c -1.6447,0 -2.9902,1.35189 -2.9902,3.21093 l 0,15.05469 c 0,1.85907 1.3455,3.21289 2.9902,3.21289 1.6447,0 2.9922,-1.35382 2.9922,-3.21289 l 0,-15.05469 c 0,-1.85905 -1.3475,-3.21093 -2.9922,-3.21093 z m 38.9297,0 c -1.6447,0 -2.9922,1.35192 -2.9922,3.21093 l 0,15.05469 c 0,1.85907 1.3475,3.21289 2.9922,3.21289 1.6447,0 2.9902,-1.35382 2.9902,-3.21289 l 0,-15.05469 c 0,-1.85905 -1.3455,-3.21093 -2.9902,-3.21093 z m -27.4883,12.3164 a 2.0002,2.0002 0 0 1 2.0293,2.02735 l 0,5.33203 a 2.0002,2.0002 0 1 1 -4,0 l 0,-5.33203 a 2.0002,2.0002 0 0 1 1.9707,-2.02735 z"
         style="opacity:1;fill:#404040;fill-opacity:1;stroke:none;stroke-width:3;stroke-linecap:round;stroke-linejoin:miter;stroke-miterlimit:4;stroke-dasharray:none;stroke-dashoffset:0;stroke-opacity:1" />
      <circle
         r="7.5"
         cy="584.59796"
         cx="374.26141"
         id="circle5349"
         style="opacity:1;fill:#ffffff;fill-opacity:1;stroke:#404040;stroke-width:3;stroke-linecap:round;stroke-linejoin:miter;stroke-miterlimit:4;stroke-dasharray:none;stroke-dashoffset:0;stroke-opacity:1" />
      <circle
         style="opacity:1;fill:#ffffff;fill-opacity:1;stroke:#404040;stroke-width:4;stroke-linecap:round;stroke-linejoin:miter;stroke-miterlimit:4;stroke-dasharray:none;stroke-dashoffset:0;stroke-opacity:1"
         id="circle5351"
         cx="374.26141"
         cy="440.56461"
         r="7.5" />
      <path
         style="opacity:1;fill:none;fill-opacity:1;stroke:#404040;stroke-width:4;stroke-linecap:round;stroke-linejoin:miter;stroke-miterlimit:4;stroke-dasharray:none;stroke-dashoffset:0;stroke-opacity:1"
         d="m 374.16248,449.66921 0,10.5367"
         id="path5353" />
      <path
         style="opacity:1;fill:#ffffff;fill-opacity:1;stroke:#404040;stroke-width:3;stroke-linecap:round;stroke-linejoin:miter;stroke-miterlimit:4;stroke-dasharray:none;stroke-dashoffset:0;stroke-opacity:1"
         d="m 299.97518,549.57551 c 0.598,-1.30547 0.3533,-2.96747 -0.7588,-3.92473 -5.636,-4.02739 -19.0698,3.39202 -19.749,6.65124 -1.0802,1.38143 -0.3068,4.80248 1.2626,5.62516"
         id="path5355" />
      <path
         style="opacity:1;fill:#ffffff;fill-opacity:1;stroke:#404040;stroke-width:3;stroke-linecap:round;stroke-linejoin:miter;stroke-miterlimit:4;stroke-dasharray:none;stroke-dashoffset:0;stroke-opacity:1"
         d="m 315.38378,561.84131 c 1.6558,6.98511 -5.6989,4.63256 -2.154,8.24148 2.4428,2.85795 3.6885,8.28318 0.2519,10.83889 -2.5388,2.81901 -7.482,1.09497 -8.5674,4.87981 -1.7113,3.61638 -8.2624,5.623 -13.4003,2.0394 -3.7148,-2.16545 -6.1094,0.67629 -9.0721,-3.80498 -2.7745,-4.08915 -3.9445,-6.52213 -4.4074,-15.3089 -0.652,-13.82031 14.4988,-20.88323 25.2978,-18.15747 5.6211,1.44281 9.615,4.36182 12.0515,11.27177 z"
         id="path5357" />
      <path
         style="color:#404040;font-style:normal;font-variant:normal;font-weight:normal;font-stretch:normal;font-size:medium;line-height:normal;font-family:sans-serif;text-indent:0;text-align:start;text-decoration:none;text-decoration-line:none;text-decoration-style:solid;text-decoration-color:#404040;letter-spacing:normal;word-spacing:normal;text-transform:none;direction:ltr;block-progression:tb;writing-mode:lr-tb;baseline-shift:baseline;text-anchor:start;white-space:normal;clip-rule:nonzero;display:inline;overflow:visible;visibility:visible;opacity:1;isolation:auto;mix-blend-mode:normal;color-interpolation:sRGB;color-interpolation-filters:linearRGB;solid-color:#404040;solid-opacity:1;fill:#404040;fill-opacity:1;fill-rule:nonzero;stroke:none;stroke-width:1.72204578;stroke-linecap:round;stroke-linejoin:miter;stroke-miterlimit:4;stroke-dasharray:none;stroke-dashoffset:0;stroke-opacity:1;color-rendering:auto;image-rendering:auto;shape-rendering:auto;text-rendering:auto;enable-background:accumulate"
         d="m 308.82368,560.46151 c -1.9368,2.80452 1.0908,8.52475 2.4582,9.903 1.416,1.19049 1.928,-1.49257 1.0478,-2.27874 -2.6033,-2.05752 -3.2016,-4.64469 -3.5118,-7.62388 z"
         id="path5359" />
      <path
         style="color:#404040;font-style:normal;font-variant:normal;font-weight:normal;font-stretch:normal;font-size:medium;line-height:normal;font-family:sans-serif;text-indent:0;text-align:start;text-decoration:none;text-decoration-line:none;text-decoration-style:solid;text-decoration-color:#404040;letter-spacing:normal;word-spacing:normal;text-transform:none;direction:ltr;block-progression:tb;writing-mode:lr-tb;baseline-shift:baseline;text-anchor:start;white-space:normal;clip-rule:nonzero;display:inline;overflow:visible;visibility:visible;opacity:1;isolation:auto;mix-blend-mode:normal;color-interpolation:sRGB;color-interpolation-filters:linearRGB;solid-color:#404040;solid-opacity:1;fill:#404040;fill-opacity:1;fill-rule:nonzero;stroke:none;stroke-width:1.72204578;stroke-linecap:round;stroke-linejoin:miter;stroke-miterlimit:4;stroke-dasharray:none;stroke-dashoffset:0;stroke-opacity:1;color-rendering:auto;image-rendering:auto;shape-rendering:auto;text-rendering:auto;enable-background:accumulate"
         d="m 299.04838,575.15486 c -0.7563,6.25316 4.3938,8.69515 7.8535,8.8125 1.1884,0.0685 1.2718,-2.13983 0.082,-2.12249 -4.6074,-0.26939 -6.6357,-3.89928 -7.9352,-6.69001 z"
         id="path5361" />
      <path
         style="color:#404040;font-style:normal;font-variant:normal;font-weight:normal;font-stretch:normal;font-size:medium;line-height:normal;font-family:sans-serif;text-indent:0;text-align:start;text-decoration:none;text-decoration-line:none;text-decoration-style:solid;text-decoration-color:#404040;letter-spacing:normal;word-spacing:normal;text-transform:none;direction:ltr;block-progression:tb;writing-mode:lr-tb;baseline-shift:baseline;text-anchor:start;white-space:normal;clip-rule:nonzero;display:inline;overflow:visible;visibility:visible;opacity:1;isolation:auto;mix-blend-mode:normal;color-interpolation:sRGB;color-interpolation-filters:linearRGB;solid-color:#404040;solid-opacity:1;fill:#404040;fill-opacity:1;fill-rule:nonzero;stroke:none;stroke-width:1.72204578;stroke-linecap:round;stroke-linejoin:miter;stroke-miterlimit:4;stroke-dasharray:none;stroke-dashoffset:0;stroke-opacity:1;color-rendering:auto;image-rendering:auto;shape-rendering:auto;text-rendering:auto;enable-background:accumulate"
         d="m 287.15968,579.62166 c -0.6569,4.15954 1.8229,6.58903 2.9735,7.84263 0.7778,0.91308 2.5607,-0.19623 1.7062,-1.03794 -2.4105,-1.55144 -3.3621,-4.43609 -4.6797,-6.80469 z"
         id="path5363" />
      <path
         style="opacity:1;fill:none;fill-opacity:1;stroke:#404040;stroke-width:1.72204578;stroke-linecap:round;stroke-linejoin:miter;stroke-miterlimit:4;stroke-dasharray:none;stroke-dashoffset:0;stroke-opacity:1"
         d="m 283.53668,566.40344 c -0.2605,-3.65913 -0.1034,-4.38322 0.2074,-6.02582"
         id="path5365" />
      <path
         style="opacity:1;fill:none;fill-opacity:1;stroke:#404040;stroke-width:1.72204578;stroke-linecap:round;stroke-linejoin:miter;stroke-miterlimit:4;stroke-dasharray:none;stroke-dashoffset:0;stroke-opacity:1"
         d="m 290.00388,565.22666 c -1.3549,-3.655 -1.5514,-5.57701 -1.7328,-7.60611"
         id="path5367" />
      <path
         style="opacity:1;fill:none;fill-opacity:1;stroke:#404040;stroke-width:1.72204578;stroke-linecap:round;stroke-linejoin:miter;stroke-miterlimit:4;stroke-dasharray:none;stroke-dashoffset:0;stroke-opacity:1"
         d="m 296.20108,561.33398 c -1.896,-2.55859 -1.8319,-3.45052 -2.3563,-5.29811"
         id="path5369" />
      <path
         id="path5371"
         d="m 461.72808,546.18755 c 1.6447,-16.57278 -16.7105,-25.21354 -30.8247,-24.75475 -2.6538,-0.0228 -5.3118,0.17266 -7.9253,0.64711"
         style="opacity:1;fill:none;fill-opacity:1;stroke:#404040;stroke-width:5;stroke-linecap:round;stroke-linejoin:miter;stroke-miterlimit:4;stroke-dasharray:none;stroke-dashoffset:0;stroke-opacity:1" />
      <path
         id="path5373"
         d="m 448.23678,549.57551 c -0.598,-1.30547 -0.3533,-2.96747 0.7588,-3.92473 5.636,-4.02739 19.0698,3.39202 19.749,6.65124 1.0802,1.38143 0.3068,4.80248 -1.2626,5.62516"
         style="opacity:1;fill:#ffffff;fill-opacity:1;stroke:#404040;stroke-width:3;stroke-linecap:round;stroke-linejoin:miter;stroke-miterlimit:4;stroke-dasharray:none;stroke-dashoffset:0;stroke-opacity:1" />
      <path
         id="path5375"
         d="m 432.82818,561.84131 c -1.6558,6.98511 5.6989,4.63256 2.154,8.24148 -2.4428,2.85795 -3.6885,8.28318 -0.2519,10.83889 2.5388,2.81901 7.482,1.09497 8.5674,4.87981 1.7113,3.61638 8.2624,5.623 13.4003,2.0394 3.7148,-2.16545 6.1094,0.67629 9.0721,-3.80498 2.7745,-4.08915 3.9445,-6.52213 4.4074,-15.3089 0.652,-13.82031 -14.4988,-20.88323 -25.2978,-18.15747 -5.6211,1.44281 -9.615,4.36182 -12.0515,11.27177 z"
         style="opacity:1;fill:#ffffff;fill-opacity:1;stroke:#404040;stroke-width:3;stroke-linecap:round;stroke-linejoin:miter;stroke-miterlimit:4;stroke-dasharray:none;stroke-dashoffset:0;stroke-opacity:1" />
      <path
         id="path5377"
         d="m 439.38828,560.46151 c 1.9368,2.80452 -1.0908,8.52475 -2.4582,9.903 -1.416,1.19049 -1.928,-1.49257 -1.0478,-2.27874 2.6033,-2.05752 3.2016,-4.64469 3.5118,-7.62388 z"
         style="color:#404040;font-style:normal;font-variant:normal;font-weight:normal;font-stretch:normal;font-size:medium;line-height:normal;font-family:sans-serif;text-indent:0;text-align:start;text-decoration:none;text-decoration-line:none;text-decoration-style:solid;text-decoration-color:#404040;letter-spacing:normal;word-spacing:normal;text-transform:none;direction:ltr;block-progression:tb;writing-mode:lr-tb;baseline-shift:baseline;text-anchor:start;white-space:normal;clip-rule:nonzero;display:inline;overflow:visible;visibility:visible;opacity:1;isolation:auto;mix-blend-mode:normal;color-interpolation:sRGB;color-interpolation-filters:linearRGB;solid-color:#404040;solid-opacity:1;fill:#404040;fill-opacity:1;fill-rule:nonzero;stroke:none;stroke-width:1.72204578;stroke-linecap:round;stroke-linejoin:miter;stroke-miterlimit:4;stroke-dasharray:none;stroke-dashoffset:0;stroke-opacity:1;color-rendering:auto;image-rendering:auto;shape-rendering:auto;text-rendering:auto;enable-background:accumulate" />
      <path
         id="path5379"
         d="m 449.16358,575.15486 c 0.7563,6.25316 -4.3938,8.69515 -7.8535,8.8125 -1.1884,0.0685 -1.2718,-2.13983 -0.082,-2.12249 4.6074,-0.26939 6.6357,-3.89928 7.9352,-6.69001 z"
         style="color:#404040;font-style:normal;font-variant:normal;font-weight:normal;font-stretch:normal;font-size:medium;line-height:normal;font-family:sans-serif;text-indent:0;text-align:start;text-decoration:none;text-decoration-line:none;text-decoration-style:solid;text-decoration-color:#404040;letter-spacing:normal;word-spacing:normal;text-transform:none;direction:ltr;block-progression:tb;writing-mode:lr-tb;baseline-shift:baseline;text-anchor:start;white-space:normal;clip-rule:nonzero;display:inline;overflow:visible;visibility:visible;opacity:1;isolation:auto;mix-blend-mode:normal;color-interpolation:sRGB;color-interpolation-filters:linearRGB;solid-color:#404040;solid-opacity:1;fill:#404040;fill-opacity:1;fill-rule:nonzero;stroke:none;stroke-width:1.72204578;stroke-linecap:round;stroke-linejoin:miter;stroke-miterlimit:4;stroke-dasharray:none;stroke-dashoffset:0;stroke-opacity:1;color-rendering:auto;image-rendering:auto;shape-rendering:auto;text-rendering:auto;enable-background:accumulate" />
      <path
         id="path5381"
         d="m 461.05228,579.62166 c 0.6569,4.15954 -1.8229,6.58903 -2.9735,7.84263 -0.7778,0.91308 -2.5607,-0.19623 -1.7062,-1.03794 2.4105,-1.55144 3.3621,-4.43609 4.6797,-6.80469 z"
         style="color:#404040;font-style:normal;font-variant:normal;font-weight:normal;font-stretch:normal;font-size:medium;line-height:normal;font-family:sans-serif;text-indent:0;text-align:start;text-decoration:none;text-decoration-line:none;text-decoration-style:solid;text-decoration-color:#404040;letter-spacing:normal;word-spacing:normal;text-transform:none;direction:ltr;block-progression:tb;writing-mode:lr-tb;baseline-shift:baseline;text-anchor:start;white-space:normal;clip-rule:nonzero;display:inline;overflow:visible;visibility:visible;opacity:1;isolation:auto;mix-blend-mode:normal;color-interpolation:sRGB;color-interpolation-filters:linearRGB;solid-color:#404040;solid-opacity:1;fill:#404040;fill-opacity:1;fill-rule:nonzero;stroke:none;stroke-width:1.72204578;stroke-linecap:round;stroke-linejoin:miter;stroke-miterlimit:4;stroke-dasharray:none;stroke-dashoffset:0;stroke-opacity:1;color-rendering:auto;image-rendering:auto;shape-rendering:auto;text-rendering:auto;enable-background:accumulate" />
      <path
         id="path5383"
         d="m 464.67528,566.40344 c 0.2605,-3.65913 0.1034,-4.38322 -0.2074,-6.02582"
         style="opacity:1;fill:none;fill-opacity:1;stroke:#404040;stroke-width:1.72204578;stroke-linecap:round;stroke-linejoin:miter;stroke-miterlimit:4;stroke-dasharray:none;stroke-dashoffset:0;stroke-opacity:1" />
      <path
         id="path5385"
         d="m 458.20808,565.22666 c 1.3549,-3.655 1.5514,-5.57701 1.7328,-7.60611"
         style="opacity:1;fill:none;fill-opacity:1;stroke:#404040;stroke-width:1.72204578;stroke-linecap:round;stroke-linejoin:miter;stroke-miterlimit:4;stroke-dasharray:none;stroke-dashoffset:0;stroke-opacity:1" />
      <path
         id="path5387"
         d="m 452.01088,561.33398 c 1.896,-2.55859 1.8319,-3.45052 2.3563,-5.29811"
         style="opacity:1;fill:none;fill-opacity:1;stroke:#404040;stroke-width:1.72204578;stroke-linecap:round;stroke-linejoin:miter;stroke-miterlimit:4;stroke-dasharray:none;stroke-dashoffset:0;stroke-opacity:1" />
      <path
         style="opacity:1;fill:#404040;fill-opacity:1;stroke:#404040;stroke-width:4;stroke-linecap:round;stroke-linejoin:miter;stroke-miterlimit:4;stroke-dasharray:none;stroke-dashoffset:0;stroke-opacity:1"
         d="m 308.73384,603.34939 130.55028,0"
         id="path4173" />
    </g>
  </g>
</svg>
